<svg version="1.1" id="Capa_1" xmlns="http://www.w3.org/2000/svg" x="0" y="0" viewBox="0 0 898.01 168.3" style="enable-background:new 0 0 898.01 168.3" xml:space="preserve"><style>.st0{fill:#10212b}</style><path class="st0" d="M488.13 153.55V30.52c.5-.08.85-.2 1.21-.2 14.25.11 28.56-.54 42.74.53 26.2 1.98 47.58 16.64 54.47 41.62 6 21.76 3.56 42.59-11.81 60.4-10.42 12.07-24.16 18.68-39.7 20.02-15.27 1.33-30.7.73-46.06.97-.17.03-.35-.1-.85-.31zm21.74-105.12v87.38c6.15 0 12.14.42 18.04-.08 17.04-1.43 29.83-9.28 36.48-25.6 3.02-7.4 3.49-15.19 3-23.08-1.09-17.44-11.72-31-28.34-36.41-9.53-3.09-19.31-1.95-29.18-2.21zM763.22 103.67c7.54 8.51 14.82 16.71 22.09 24.92s14.54 16.42 22.22 25.1c-1.43.13-2.2.26-2.97.26-7.08.02-14.17-.06-21.25.05-1.88.03-3.08-.63-4.27-2.01-12.72-14.75-25.53-29.42-38.19-44.22-1.9-2.22-3.83-2.98-6.81-2.09v48.08h-21.65V30.5c.52-.07.97-.19 1.42-.19 13.32.11 26.67-.16 39.97.48 11.26.54 21.96 3.58 30.22 11.95 17.12 17.38 13.5 51.14-15.67 59.52-1.5.45-3.02.84-5.11 1.41zm-29.1-15.83c7.5 0 14.75.38 21.95-.09 9.6-.63 15.17-5.72 16.27-15.29 1.51-13.13-4.09-21.96-17.14-23.23-6.65-.65-13.37-.54-20.06-.75-.33-.01-.66.2-1.03.32.01 13.03.01 25.95.01 39.04zM288.17 105.72v48.08h-21.63V30.61c.45-.1.88-.28 1.32-.27 13.42.11 26.86-.16 40.25.49 11.06.53 21.6 3.54 29.78 11.66 17.56 17.42 13.79 51.59-15.56 59.83-1.43.4-2.86.79-4.93 1.36 7.52 8.48 14.78 16.67 22.05 24.87 7.27 8.21 14.54 16.43 22.28 25.18-1.59.12-2.45.23-3.31.24-6.9.02-13.8-.06-20.69.05-1.95.03-3.26-.54-4.54-2.03-12.71-14.76-25.54-29.42-38.19-44.23-1.93-2.27-3.85-2.94-6.83-2.04zm.24-57.22v39.55c.83.04 1.47.11 2.11.1 6.43-.08 12.88.18 19.28-.33 10.31-.82 15.8-5.92 16.82-16.07 1.05-10.38-2.8-19.29-13.34-21.84-8.15-1.98-16.44-1.45-24.87-1.41zM628.69 97.23v38.69h62.18v17.89h-83.88V30.55h79.42V48.4H628.8v30.83h47.26v18.01c-15.81-.01-31.45-.01-47.37-.01zM826.5 112.75c4.21 7.91 9.52 14.53 16.2 20.08 7.34 6.1 15.44 6.58 23.85 3.02 9.98-4.23 13.1-15.86 6.91-24.79-3.12-4.49-7.49-7.53-12.31-9.85-5.78-2.78-11.82-5.05-17.54-7.95-5.46-2.77-10.85-5.78-15.94-9.19-21.31-14.25-12.78-40.93 1.27-49.78 5.7-3.59 11.78-6 18.47-6.69 13.04-1.34 25.54-.28 36.13 8.68 5.86 4.96 11.83 13.78 13.29 19.88-5.97 1.9-11.95 3.81-18.04 5.75-.37-.76-.66-1.34-.93-1.91-5.98-12.38-19.46-17.52-32.33-12.48-8.01 3.14-11.13 13.39-3.31 19.18 4.3 3.18 9.12 5.73 13.92 8.14 5.65 2.84 11.63 5.02 17.27 7.85 3.64 1.83 7.14 4.06 10.35 6.58 12.44 9.75 16.53 22.7 13.07 37.82-3.52 15.42-14.05 24.33-29.05 27.61-23.99 5.24-44.99-5.49-55.42-27.74-.34-.73-.18-2.27.35-2.74 4.43-3.83 9-7.51 13.79-11.47zM364.79 153.96c19.9-45.63 39.6-90.78 59.57-136.58 20.09 45.75 39.92 90.89 59.9 136.39-1.21.08-2.08.18-2.95.18-5.68.01-11.37-.08-17.05.05-2.05.05-3.1-.52-3.93-2.52-3.95-9.54-8.15-18.97-12.15-28.5-.76-1.81-1.69-2.51-3.69-2.46-5.39.15-10.79.05-16.41.05v-17.99h11.67c-5.2-12.84-10.19-25.15-15.42-38.05-5.23 12.84-10.26 25.18-15.48 37.98h12.32v18.06h-6.54c-3.54 0-7.09.09-10.62-.04-1.75-.06-2.63.5-3.31 2.15-3.98 9.63-8.14 19.18-12.11 28.81-.75 1.82-1.65 2.53-3.66 2.49-6.52-.1-13.04-.02-20.14-.02z"/><path d="M60.02 60.96c-7.03 6.73-13.88 13.28-21.19 20.27V0c27.82 35.87 55.41 71.44 83.15 107.2l21.29-20.36v81.45C115.35 132.3 87.76 96.72 60.02 60.96z" style="fill:#0672f5"/><path class="st0" d="M194.51 153.74V48.52h-34.05c0-5.87-.03-11.42.05-16.97.01-.41.69-.96 1.18-1.17.47-.21 1.1-.07 1.66-.07h85.19v18.06h-32.22v105.37h-21.81zM0 30.45h21.4v123.34H0V30.45zM121.98 15h21.22c.05 1 .14 1.97.14 2.95.03 19.27.09 38.54 0 57.81-.01 1.36-.75 3.06-1.73 4.03-5.8 5.78-11.76 11.4-17.68 17.07-.52.5-1.1.94-1.96 1.67.01-28.02.01-55.67.01-83.53zM60.02 70.22v83.58H38.91c-.05-1.06-.14-1.97-.14-2.87-.04-19.19-.04-38.38-.15-57.57-.01-2.04.58-3.46 2.07-4.84 5.72-5.33 11.33-10.8 16.99-16.2.64-.64 1.34-1.21 2.34-2.1z"/></svg>