<?xml version="1.0" encoding="utf-8"?>
<!-- Generator: Adobe Illustrator 24.3.0, SVG Export Plug-In . SVG Version: 6.00 Build 0)  -->
<svg version="1.1" id="Capa_1" xmlns="http://www.w3.org/2000/svg" xmlns:xlink="http://www.w3.org/1999/xlink" x="0px" y="0px"
	 viewBox="0 0 898.01 168.3" style="enable-background:new 0 0 898.01 168.3;" xml:space="preserve">
<style type="text/css">
	.st0{fill:#10212B;}
	.st1{fill:#0672F5;}
</style>
<g>
	<path class="st0" d="M488.13,153.55c0-41.05,0-82,0-123.03c0.5-0.08,0.85-0.2,1.21-0.2c14.25,0.11,28.56-0.54,42.74,0.53
		c26.2,1.98,47.58,16.64,54.47,41.62c6,21.76,3.56,42.59-11.81,60.4c-10.42,12.07-24.16,18.68-39.7,20.02
		c-15.27,1.33-30.7,0.73-46.06,0.97C488.81,153.89,488.63,153.76,488.13,153.55z M509.87,48.43c0,29.42,0,58.35,0,87.38
		c6.15,0,12.14,0.42,18.04-0.08c17.04-1.43,29.83-9.28,36.48-25.6c3.02-7.4,3.49-15.19,3-23.08c-1.09-17.44-11.72-31-28.34-36.41
		C529.52,47.55,519.74,48.69,509.87,48.43z"/>
	<path class="st0" d="M763.22,103.67c7.54,8.51,14.82,16.71,22.09,24.92c7.27,8.21,14.54,16.42,22.22,25.1
		c-1.43,0.13-2.2,0.26-2.97,0.26c-7.08,0.02-14.17-0.06-21.25,0.05c-1.88,0.03-3.08-0.63-4.27-2.01
		c-12.72-14.75-25.53-29.42-38.19-44.22c-1.9-2.22-3.83-2.98-6.81-2.09c0,15.93,0,31.91,0,48.08c-7.33,0-14.36,0-21.65,0
		c0-41.07,0-82.1,0-123.26c0.52-0.07,0.97-0.19,1.42-0.19c13.32,0.11,26.67-0.16,39.97,0.48c11.26,0.54,21.96,3.58,30.22,11.95
		c17.12,17.38,13.5,51.14-15.67,59.52C766.83,102.71,765.31,103.1,763.22,103.67z M734.12,87.84c7.5,0,14.75,0.38,21.95-0.09
		c9.6-0.63,15.17-5.72,16.27-15.29c1.51-13.13-4.09-21.96-17.14-23.23c-6.65-0.65-13.37-0.54-20.06-0.75
		c-0.33-0.01-0.66,0.2-1.03,0.32C734.12,61.83,734.12,74.75,734.12,87.84z"/>
	<path class="st0" d="M288.17,105.72c0,15.94,0,31.93,0,48.08c-7.34,0-14.37,0-21.63,0c0-41.13,0-82.11,0-123.19
		c0.45-0.1,0.88-0.28,1.32-0.27c13.42,0.11,26.86-0.16,40.25,0.49c11.06,0.53,21.6,3.54,29.78,11.66
		c17.56,17.42,13.79,51.59-15.56,59.83c-1.43,0.4-2.86,0.79-4.93,1.36c7.52,8.48,14.78,16.67,22.05,24.87
		c7.27,8.21,14.54,16.43,22.28,25.18c-1.59,0.12-2.45,0.23-3.31,0.24c-6.9,0.02-13.8-0.06-20.69,0.05
		c-1.95,0.03-3.26-0.54-4.54-2.03c-12.71-14.76-25.54-29.42-38.19-44.23C293.07,105.49,291.15,104.82,288.17,105.72z M288.41,48.5
		c0,13.41,0,26.4,0,39.55c0.83,0.04,1.47,0.11,2.11,0.1c6.43-0.08,12.88,0.18,19.28-0.33c10.31-0.82,15.8-5.92,16.82-16.07
		c1.05-10.38-2.8-19.29-13.34-21.84C305.13,47.93,296.84,48.46,288.41,48.5z"/>
	<path class="st0" d="M628.69,97.23c0,13.04,0,25.68,0,38.69c10.44,0,20.75,0,31.06,0c10.32,0,20.64,0,31.12,0
		c0,6.09,0,11.91,0,17.89c-27.93,0-55.74,0-83.88,0c0-41.1,0-82.06,0-123.26c26.34,0,52.83,0,79.42,0c0,5.94,0,11.76,0,17.85
		c-19.22,0-38.29,0-57.61,0c0,10.33,0,20.41,0,30.83c15.75,0,31.44,0,47.26,0c0,6.17,0,12,0,18.01
		C660.25,97.23,644.61,97.23,628.69,97.23z"/>
	<path class="st0" d="M826.5,112.75c4.21,7.91,9.52,14.53,16.2,20.08c7.34,6.1,15.44,6.58,23.85,3.02
		c9.98-4.23,13.1-15.86,6.91-24.79c-3.12-4.49-7.49-7.53-12.31-9.85c-5.78-2.78-11.82-5.05-17.54-7.95
		c-5.46-2.77-10.85-5.78-15.94-9.19c-21.31-14.25-12.78-40.93,1.27-49.78c5.7-3.59,11.78-6,18.47-6.69
		c13.04-1.34,25.54-0.28,36.13,8.68c5.86,4.96,11.83,13.78,13.29,19.88c-5.97,1.9-11.95,3.81-18.04,5.75
		c-0.37-0.76-0.66-1.34-0.93-1.91c-5.98-12.38-19.46-17.52-32.33-12.48c-8.01,3.14-11.13,13.39-3.31,19.18
		c4.3,3.18,9.12,5.73,13.92,8.14c5.65,2.84,11.63,5.02,17.27,7.85c3.64,1.83,7.14,4.06,10.35,6.58
		c12.44,9.75,16.53,22.7,13.07,37.82c-3.52,15.42-14.05,24.33-29.05,27.61c-23.99,5.24-44.99-5.49-55.42-27.74
		c-0.34-0.73-0.18-2.27,0.35-2.74C817.14,120.39,821.71,116.71,826.5,112.75z"/>
	<path class="st0" d="M364.79,153.96c19.9-45.63,39.6-90.78,59.57-136.58c20.09,45.75,39.92,90.89,59.9,136.39
		c-1.21,0.08-2.08,0.18-2.95,0.18c-5.68,0.01-11.37-0.08-17.05,0.05c-2.05,0.05-3.1-0.52-3.93-2.52
		c-3.95-9.54-8.15-18.97-12.15-28.5c-0.76-1.81-1.69-2.51-3.69-2.46c-5.39,0.15-10.79,0.05-16.41,0.05c0-6.02,0-11.83,0-17.99
		c3.67,0,7.34,0,11.67,0c-5.2-12.84-10.19-25.15-15.42-38.05c-5.23,12.84-10.26,25.18-15.48,37.98c4.42,0,8.3,0,12.32,0
		c0,6.05,0,11.79,0,18.06c-2.17,0-4.36,0-6.54,0c-3.54,0-7.09,0.09-10.62-0.04c-1.75-0.06-2.63,0.5-3.31,2.15
		c-3.98,9.63-8.14,19.18-12.11,28.81c-0.75,1.82-1.65,2.53-3.66,2.49C378.41,153.88,371.89,153.96,364.79,153.96z"/>
	<path class="st1" d="M60.02,60.96c-7.03,6.73-13.88,13.28-21.19,20.27c0-27.26,0-53.96,0-81.23
		c27.82,35.87,55.41,71.44,83.15,107.2c7.07-6.76,13.97-13.36,21.29-20.36c0,27.36,0,54.1,0,81.45
		C115.35,132.3,87.76,96.72,60.02,60.96z"/>
	<path class="st0" d="M194.51,153.74c0-35.08,0-69.99,0-105.22c-11.37,0-22.5,0-34.05,0c0-5.87-0.03-11.42,0.05-16.97
		c0.01-0.41,0.69-0.96,1.18-1.17c0.47-0.21,1.1-0.07,1.66-0.07c27.49,0,54.97,0,82.46,0c0.82,0,1.65,0,2.73,0
		c0,6.08,0,11.95,0,18.06c-10.72,0-21.32,0-32.22,0c0,35.2,0,70.17,0,105.37C209,153.74,201.98,153.74,194.51,153.74z"/>
	<path class="st0" d="M0,30.45c7.12,0,14.16,0,21.4,0c0,41.13,0,82.14,0,123.34c-7.09,0-14.12,0-21.4,0C0,112.69,0,71.73,0,30.45z"
		/>
	<path class="st0" d="M121.98,15c7.01,0,13.95,0,21.22,0c0.05,1,0.14,1.97,0.14,2.95c0.03,19.27,0.09,38.54,0,57.81
		c-0.01,1.36-0.75,3.06-1.73,4.03c-5.8,5.78-11.76,11.4-17.68,17.07c-0.52,0.5-1.1,0.94-1.96,1.67
		C121.98,70.51,121.98,42.86,121.98,15z"/>
	<path class="st0" d="M60.02,70.22c0,28.17,0,55.8,0,83.58c-7.08,0-14.01,0-21.11,0c-0.05-1.06-0.14-1.97-0.14-2.87
		c-0.04-19.19-0.04-38.38-0.15-57.57c-0.01-2.04,0.58-3.46,2.07-4.84c5.72-5.33,11.33-10.8,16.99-16.2
		C58.32,71.68,59.02,71.11,60.02,70.22z"/>
</g>
</svg>
